<?xml version="1.0" encoding="utf-8"?>
<!DOCTYPE svg PUBLIC "-//W3C//DTD SVG 1.1//EN" "http://www.w3.org/Graphics/SVG/1.1/DTD/svg11.dtd">
<svg version="1.1"
	 id="svg2" xmlns:rdf="http://www.w3.org/1999/02/22-rdf-syntax-ns#" xmlns:cc="http://web.resource.org/cc/" xmlns:dc="http://purl.org/dc/elements/1.1/" xmlns:sodipodi="http://sodipodi.sourceforge.net/DTD/sodipodi-0.dtd" xmlns:svg="http://www.w3.org/2000/svg" xmlns:inkscape="http://www.inkscape.org/namespaces/inkscape" xmlns:ns1="http://sozi.baierouge.fr" sodipodi:version="0.32" inkscape:version="0.46dev+devel" inkscape:output_extension="org.inkscape.output.svg.inkscape" sodipodi:docname="SALSA.svg"
	 xmlns="http://www.w3.org/2000/svg" xmlns:xlink="http://www.w3.org/1999/xlink" x="0px" y="0px"
	 viewBox="609.1539 -77.0217 1341.7324 1754.0316" enable-background="new 609.1539 -77.0217 1341.7324 1754.0316"
	 xml:space="preserve">
<sodipodi:namedview  id="base" pagecolor="#ffffff" borderopacity="1.0" bordercolor="#666666" inkscape:cy="216.02089" inkscape:zoom="0.7" inkscape:cx="436.06606" inkscape:document-units="px" inkscape:current-layer="layer1" inkscape:pageopacity="0" inkscape:window-y="-8" inkscape:pageshadow="2" inkscape:window-x="-8" inkscape:window-width="1280" inkscape:window-height="720">
	</sodipodi:namedview>
<path d="M1888.1726,35.894c-2.2173-3.0305-4.9447-4.5311-8.3542-4.4414l-3.1193-1.1941l-7.1919,2.6807l-7.192,2.6807
	l-14.7764,18.1221c-7.9448,7.4409-14.9624,13.0771-16.4438,13.0771c-1.667,0-4.0208-6.0803-5.2303-13.5011
	c-2.8441-17.947-7.3881-25.7274-14.9723-25.7274c-3.1581,0-5.4575,1.95-7.9114,7.4246l-1.8296,2.5007l-4.5439,6.2112V53.839
	c-3.9231,11.8413-6.8042,17.036-10.6716,18.3997l-2.4045-0.7574l-2.562,0.8052c-0.1482-0.0344-0.2949-0.0667-0.4464-0.106
	c-9.7089-2.5499-15.8876,1.1113-13.6646,8.1072c0.264,0.8319,0.4208,1.6238,0.4811,2.3467
	c0.6887,0.7981,1.0935,1.7378,1.2483,2.7375c1.2091,1.6025,1.9139,3.6429,2.4927,5.6462c0.5154,0.3745,0.8643,0.9063,0.9431,1.5938
	c0.6377,5.5066,1.0297,7.9661,1.8622,9.6548c0.5819,7.6559,1.0057,16.8274,1.1134,25.2134l0.3359,25.9644
	c-0.2175,1.02-0.4451,1.9895-0.6848,2.8873l-15.4734,23.2567l-16.2144,24.3218l-56.4237,59.8889
	c-64.0405,67.9307-85.3873,92.7754-96.1425,111.8666c-4.119,7.3553-8.4995,13.3376-9.7418,13.3376
	c-2.5498,0-35.2402,48.3818-43.3475,64.1713c-2.8767,5.6228-9.1206,14.8088-13.8279,20.4315l-8.5977,10.1993h-18.7517
	c-3.6594-2.4517-7.9951-5.6592-12.3049-9.1732c-1.483-1.205-2.9797-2.4091-4.4634-3.5939
	c-8.2732-6.8796-22.7813-17.5662-32.5415-23.9442l-17.9797-11.8011l-19.9738-4.0864l-20.0065-4.0862l-14.3185,7.4534
	l-14.3511,7.4861l-38.6074,9.4476l-38.6074,9.4149h-30.2059l-21.4775,6.8976c-11.8013,3.7921-27.0188,8.9244-33.7987,11.4417
	c-6.7767,2.4845-13.73,4.5441-15.4462,4.5441h-2.2349c0.2172-0.2485,0.436-0.4983,0.6781-0.772
	c4.4133-4.9363,5.1324-12.4551,4.1844-44.361c-0.6211-21.118,0.1309-38.4113,1.7-38.4113c3.6614,0,7.3555-22.3602,8.1399-49.0356
	c0.6211-20.4968,1.1769-21.8372,16.051-37.594c8.4668-8.9897,17.7834-20.2354,20.6603-25.0081l4.5787-7.49l8.0403,10.3867
	c2.6379,3.3994,6.7646,8.3823,11.0717,13.395c8.101,10.7463,13.8889,17.3716,19.6688,21.8846l2.0808,2.2816l2.1223,0.6356
	c3.83,2.3444,7.8916,4.0145,12.8165,5.5555c21.9352,6.865,33.1154-1.3403,36.0902-26.5447
	c0.8499-7.0286,2.5824-8.1399,12.4222-8.0092c12.8473,0.1962,16.2144-2.9095,16.2798-15.0376
	c0.0653-10.0686,5.5573-16.1818,14.6124-16.2472c11.8992-0.0653,14.4492-4.4458,15.2338-26.1523
	c0.4904-13.6973,3.4325-27.2965,8.3688-38.4438c4.1843-9.4802,7.6169-20.9873,7.6169-25.5313
	c0-10.4282,9.4802-40.6016,14.7761-47.1069c2.2231-2.7133,5.9171-12.5531,8.2708-21.8699
	c1.9312-7.7506,2.7595-13.1382,1.9111-17.3772l0.0183-3.8839l-4.4672-3.7277c-1.3779-1.2693-3.0834-2.4919-5.151-3.738
	c-3.057-2.0083-6.8311-4.2744-10.1594-6.0682l-4.9941-2.67c-3.4084-2.7664-6.5535-6.2517-9.1013-10.1082l-3.1324-5.5938
	l-7.2899-13.0435l-16.6394-5.3613c-9.1533-2.9421-20.1375-7.6169-24.4198-10.3628c-4.3151-2.7461-21.3795-10.2649-37.9862-16.7048
	l-30.1733-11.7031h-22.0006l-5.5574,6.1458l-5.5574,6.1459l-12.6512,2.0267l-12.6511,2.0269l-18.1007,16.5085l-18.0811,16.5415
	l-2.1674,7.1919c-1.1899,3.9229-5.4332,10.8533-9.428,15.3318l-7.2605,8.1726l-4.119,31.0559l-4.1223,31.0559l-3.8052,8.1726
	l-3.1018,6.6563c-0.8268,0.624-1.7245,1.1659-2.7008,1.6384l-25.7632,1.5778l-27.7607,1.6672l-34.2236,17.5221l-34.2236,17.4893
	l-53.1089,53.1548l-1.4796,2.8269c-20.6934,22.1697-41.3203,45.3374-49.0833,55.9301
	c-4.5439,6.2438-10.1013,12.8147-12.3243,14.6127c-5.8843,4.7401-32.6904,37.5286-40.0785,49.0356
	c-7.9111,12.3242-10.1013,16.2471-28.8329,52.1411c-3.1722,6.0729-6.2878,11.8459-9.012,16.7346
	c-2.9229,4.5529-5.8497,9.2329-8.5042,13.6226l-0.5504,0.9106c-8.1856,6.0476-16.7161,21.9934-16.7161,31.2363
	c0,5.9497-1.4384,11.7032-3.2037,12.782c-4.8382,3.0076-25.4005,40.9611-31.0886,57.437
	c-8.6629,25.0082-27.8522,65.8386-32.4943,69.075c-0.7068,0.4974-2.001,0.8241-3.6049,0.9797l-4.0413-1.0248l-7.9928-1.9941
	l-2.7106,2.707c-0.6284,0.3779-1.2034,0.9414-1.7459,1.7436l-0.4209,0.4203l-4.8741,4.8708l-2.2916,21.3796l-1.6584,15.4945
	c-0.0488,0.2993-0.0967,0.5926-0.1462,0.8958c-0.3317,2.0422-1.2419,4.7709-2.5574,7.8503l-5.5562,7.6653
	c-4.1942,5.7861-11.2979,16.4105-15.7797,23.6025l-8.153,13.0762l-2.1739,21.2488l-2.1707,21.2488l6.6917,31.5462l6.695,31.5463
	l10.0065,19.1238c1.9056,3.6459,4.2659,7.7347,6.7742,11.8078c4.4776,7.7811,9.4374,14.9272,14.821,21.2219
	c5.7305,6.6796,8.3456,9.827,8.652,12.7269l-11.2901,20.6376l-12.2001,22.3276v49.5261l3.6263,8.127
	c1.2549,3.8137,2.9426,7.6326,5.1968,12.0879c0.3834,0.7576,0.7857,1.5106,1.205,2.259l5.3757,12.0474l6.2798,5.5574
	c1.6671,1.4824,5.0693,3.6744,9.2415,6.0399c13.7236,10.687,30.5366,17.6399,45.4365,17.6399
	c13.5338,0,54.2661,7.1267,75.188,13.1743c6.2766,1.798,23.7333,4.5768,38.7382,6.1786c12.8948,1.3484,24.6956,3.4207,28.7368,4.952
	v4.1563c0,3.5634-1.458,9.2188-3.2396,12.5532l-1.2875,2.4014c-1.3331,1.5365-2.7827,2.9514-4.2844,4.1593l-7.6157,1.6772
	l-9.9451,2.1575l-4.7588,7.2899l-4.7587,7.2571l-3.3589,17.7181l-3.0543,16.08c-0.2843,0.8395-0.5795,1.6766-0.8892,2.5074
	l-6.892,10.6379c-4.1121,6.3419-10.189,18.8624-13.5034,27.8523c-3.3148,8.9899-11.5511,27.4271-18.305,40.9937
	c-6.7538,13.5337-13.9654,30.8923-16.0248,38.542l-3.7431,13.8934l-9.8594,16.7374
	c-14.8938,25.2372-32.3178,60.7389-32.3178,65.8059v0.2477c-2.5494,4.754-5.0195,9.0107-7.4678,12.8615l-15.4155,17.816
	l-22.8833,26.4467v4.3152c0,0.2628-0.0414,0.5966-0.1097,0.9745c-0.5997,1.5597-1.0592,3.0802-1.3826,4.5649
	c-1.2017,3.2123-3.0198,7.2262-5.0457,11.0018l-6.5381,12.1935v3.7893c-0.6305,1.5082-0.6276,2.8422,0,4.5203v6.7607l3.6613,3.6613
	l3.658,3.6614l-4.0503,16.8682l-4.0504,16.9009l2.2197,19.6143c1.2194,10.7877,3.8934,23.2755,5.9366,27.7542l3.7234,8.1726
	l10.8049,5.5129c4.1629,3.1832,8.0987,5.3064,12.6223,6.4402l1.1757,0.5999l1.7994-0.0079
	c8.6066,1.2881,19.6591-0.5045,37.8489-4.8827c12.3246-2.9705,20.8887-5.5555,26.6354-8.1375l0.7087-0.179l0.3143-0.2958
	c3.8405-1.8353,6.2903-3.6808,7.6799-5.6735c4.4786-6.4073,6.0804-6.6362,22.0333-3.3018c2.9067,0.609,5.9783,1.031,9.1674,1.292
	l7.3766,1.8986l9.0734-1.8882c27.2738-1.9224,58.1028-12.6102,73.7921-25.0913l6.8855-3.2919l3.5632-7.813l3.56-7.8131
	l-4.0765-4.9036l-4.0797-4.9363l-11.9288-1.9613c-17.1742-2.8441-29.4478-8.042-40.1504-17.0319l-9.373-7.911v-5.2377
	c2.3561-6.0098,11.9335-16.5667,35.3664-39.7966c13.3559-13.2412,22.132-22.1447,28.2503-29.1962l2.0276-2.0034l0.5638-1.0667
	c7.5909-9.277,10.4035-15.5706,13.8133-25.8899c3.7595-11.3435,10.1994-27.2639,14.3184-35.3384
	c4.1518-8.1072,9.7417-22.066,12.4551-31.0559c2.6806-8.9899,11.6705-30.5002,19.9086-47.7933
	c8.2706-17.2932,15.0375-34.8479,15.0375-38.9996c0-2.1805,0.01-3.7212,0.2665-4.5852l1.8488,0.7472
	c1.2029,0.5232,12.7982,12.684,25.7698,27.0677l15.2969,16.9589c4.6372,6.1652,8.8054,12.0975,12.069,17.2235l6.9852,14.8533
	l10.7617,22.8833l30.0261,30.5983l27.0557,27.5386c1.3416,1.5237,2.5562,2.9723,3.665,4.3682l3.9246,7.6158
	c5.6392,10.8857,34.4067,98.1038,34.4133,104.3151c0.0032,2.4518,2.8767,9.8071,6.4072,16.3452
	c8.8918,16.5085,16.4761,36.1882,16.4761,42.6936v5.2173c-0.0525,0.1019-0.1051,0.2037-0.1643,0.3018l-13.5657,4.942
	l-11.8975,4.3403c-3.1572,0.1097-4.5444,3.3982-4.9998,12.496l-1.9554,7.2892l1.6149,5.1193l-0.1866,7.7744h82.4779l14.2856-14.9069
	c2.3193-2.4159,4.5852-5.09,6.6613-7.7955l6.2196-5.4573l1.7872-7.1492c0.7666-1.625,1.3114-3.078,1.5465-4.2465l0.9172-4.571
	l11.2441,12.2401l11.4744,12.4551l6.342,17.9797h0.7848v0.0002h1.83v0.0309l9.7583-0.0077
	c17.218,1.4164,59.4504,1.4281,163.043,1.4281c74.6033,0,127.3282-0.5062,154.2805-1.4513h14.2069l-0.0002-0.0002h1.9614v-0.8641
	c2.944-0.2736,4.4451-0.5697,4.4451-0.8878c0-1.1731-1.7955-2.6189-4.4451-3.7937v-0.4365l-31.8732-10.559
	c-15.5559-5.137-33.2424-11.7142-42.0498-15.6196c-3.7468-1.9135-7.4009-3.8903-10.9517-5.9248
	c-15.0911-9.4821-35.647-26.5101-45.8871-38.4751l-7.9166-9.2467c-0.1688-0.4373-0.3303-0.8773-0.4795-1.3245l-2.3263-10.6776
	l-2.5499-11.7032l-43.7397-44.1321h-6.2894c-3.0109-1.9897-6.6158-4.7169-10.7302-8.0995l-16.9784-15.6011
	c-14.1876-13.0435-34.75-34.1942-45.6685-47.0088l-19.8759-23.3083l-35.3057-26.9696c-18.793-14.3395-38.59-30.4465-45.0084-36.5618
	c-1.5864-2.5369-4.4196-5.2716-7.4902-7.2207c-3.4866-3.2808-6.6165-6.1052-8.2075-7.3781l-2.6835-2.1284
	c-1.1389-2.1272-2.1307-4.7013-3.0632-7.8724l-1.1183-6.933l-2.0922-13.1416l-8.9899-6.3093l-8.9899-6.3092l-12.2589-2.2556
	l-7.3059-1.3248c-2.1055-1.1698-3.7446-2.4955-5.0126-4.051c-0.3436-1.3328-2.1564-4.7552-4.7782-9.1118
	c-1.3457-2.4158-3.03-5.0854-4.8064-7.6207c-0.5872-0.8939-1.1844-1.7952-1.7974-2.7035l-7.5781-11.2589
	c-1.6829-3.7823-2.6877-7.6704-2.6877-10.8926c0-2.2437-0.3745-4.4683-1.1758-6.7792v-4.3809l-13.0762-14.8741l-5.1947-5.8973
	c-7.973-11.0588-9.1154-19.6541-1.6387-19.6541c4.6747,0,43.4457,24.2891,47.2377,29.5848
	c1.8586,2.5912,6.6025,5.8118,12.1514,8.6967l3.1487,2.6674l6.2925,1.5863c5.0308,1.9313,9.822,3.2197,13.0267,3.2314
	c10.465,0,16.8295-5.2144,22.8141-19.0381l1.868-2.5173l-0.0304-2.0353c2.5697-6.9489,2.624-11.3215-0.3069-21.7545l-0.0876-6.8412
	l-8.4015-18.3392l-8.4015-18.3392l-6.9038-4.4824c-0.8098-0.7427-1.5337-1.2274-2.1394-1.3889l-8.4788-5.5049
	c-9.6438-6.2765-25.7274-15.9855-35.7307-21.5757c-19.8893-11.1155-25.8833-16.5066-32.2874-31.1113
	c-0.7966-2.5418-2.0172-5.577-3.4182-8.3693l-3.1304-7.8712c-1.0868-6.6277,5.2349-8.6635,23.7979-10.0076
	c18.9606-1.3729,19.6797-1.7327,19.6797-10.4282c0-2.4138-0.4567-4.7485-1.2261-6.8446l0.4419-3.7922l-6.865-4.8054l-5.9875-4.1913
	c2.4802-3.4111,6.4127-7.8738,11.1848-12.3706c5.8916-5.5826,6.9783-9.6645,2.7695-14.7147
	c-1.4744-2.4932-4.3961-5.2748-8.8494-9.1942c-20.4921-18.1222-35.9681-41.2155-44.4001-65.951
	c-4.4055-15.3397-5.879-31.8082-4.1782-48.061c2.4191-23.1775,12.4224-48.1856,22.0333-55.1487
	c3.3345-2.4518,5.2958-6.5054,4.3478-8.9899c-0.9806-2.5173,1.3406-12.6513,5.1326-22.5237
	c5.9824-15.6914,8.3362-18.372,18.6663-21.2488c6.5054-1.798,20.1699-3.269,30.3694-3.3018c10.1993,0,27.1002-2.1576,37.594-4.8055
	c10.6897-2.7133,28.3427-4.3151,40.3073-3.6613c4.7043,0.1444,9.2708,0.085,13.7352-0.0982l3.0679,0.0204l0.2844-0.1816
	c21.7039-1.1838,41.151-4.8859,62.5227-1.7259l13.8846,4.5228l20.3085,6.6241c2.0706,1.0563,4.1699,2.1948,6.3013,3.4242
	c0.0569,0.027,0.1132,0.0617,0.1699,0.0898l3.7532,3.3957c1.7783,1.6112,3.307,3.1425,4.6431,4.7386
	c2.3984,3.5387,4.611,7.9564,6.5371,13.0239c1.6696,5.9075,2.9238,13.8196,4.3805,25.4869l3.3016,26.2831l6.3748,20.3661
	c3.5305,11.2129,6.4072,24.4852,6.4399,29.5195c0.0327,5.0017,2.4192,18.6335,5.3612,30.2714l5.2958,21.1833l20.9546,35.0767
	c11.5071,19.2872,21.7719,38.4113,22.8179,42.4648l1.8961,7.4208l-3.6285,4.3806l-3.6614,4.3806l1.896,9.4803l1.8961,9.4476
	l-19.3528,26.6755l-11.4744,5.4592l-11.507,5.4592h-32.2001l-7.911,8.4342l-7.9438,8.4342l10.9513,9.7744l10.9186,9.7744
	l20.1373-1.9941l20.1046-1.9613l4.5112,3.0074l4.5114,3.0402l2.1903,48.578l2.1902,48.5779l5.3286,10.036
	c2.9421,5.5247,7.813,12.0955,10.7878,14.5472l5.4265,4.5114l5.9824-7.911l5.9497-7.9111l11.1147,27.7869l5.917,3.1709
	l5.9169,3.1709l5.1324-5.1324l5.1323-5.1324v-15.3318l-3.8574-1.3076l-3.8574-1.275l0.752-18.1759l-9.3822-22.0988l0,0l0,0v-10.0034
	h5.9497l6.767,13.8934c3.694,7.6497,11.2781,19.4181,16.8682,26.1523l10.134,12.2589h6.2766c3.4652,0,6.3093-0.6212,6.3093-1.3729
	c0-0.7518,0.8826-3.6614,1.9614-6.4727l1.9614-5.1324l-8.0092-3.0402l-8.0092-3.073l-1.9287-17.424
	c-1.0461-9.5784-2.9094-22.197-4.1517-28.0485l-2.2556-10.6244h5.2305c6.3419,0,31.5463,12.8146,31.5463,16.0509
	c0,1.275,2.9421,5.4919,6.5708,9.3821l6.5707,7.0286l4.871-1.8634l4.8708-1.8634v-11.2452l-7.5515-7.0938l-7.5188-7.0938
	l-7.813-8.9572l-12.5859-18.5682l-12.6184-18.5681l-1.9614-25.1716l-1.9614-25.2043l-3.8901-11.4417l-3.9229-11.4417l-6.0479-5.8515
	c-3.3345-3.2036-6.0477-7.2245-6.0477-8.8917v-3.0402l0.6539-8.3685l-3.3999-13.0762c-1.8633-7.192-4.969-19.6797-6.865-27.7869
	l-3.4978-14.7107l0.6211-17.9797c0.1213-3.3328,0.1589-6.7075,0.1278-9.829c1.8011-1.497,3.7101-3.1215,5.7562-4.9025
	l-2.0569-12.847l11.7844,0.4059l15.1825,1.0648c13.0371,0.9312,19.8412,1.362,25.2719,0.2966l0.5538,0.0184l0.3063-0.2033
	c5.2053-1.2073,9.3352-3.9099,16.9868-9.0688c5.83-3.9283,10.0046-7.3385,13.1553-10.9456l2.2421-1.4887l0.8739-2.6553
	c1.7877-2.7966,3.1587-5.8328,4.3236-9.3954c2.4845-7.486,7.7477-17.2278,11.6705-21.6083
	c11.8994-13.2396,24.1909-39.0323,26.2505-55.116c1.9615-15.2991,13.4032-38.8035,18.8624-38.8035
	c1.6019,0,2.9423-4.2498,2.9423-9.4476c0-7.451-1.7974-9.9036-8.4609-11.5708l-0.0386-0.0464h-0.1328
	c-6.2617-1.6241-7.7295-3.4911-5.9478-7.6702c5.8843-14.0242,5.6554-20.6931-0.85-22.3929c-0.7136-0.1835-1.3429-0.4059-1.908-0.662
	c-1.4445-2.7282-2.6063-5.8058-3.1498-8.292c0.3269-1.7679,0.1903-3.6316-0.3523-5.4739l-0.0164-2.9106l-7.9365-8.1965
	c-2.2974-3.2991-3.8975-7.3507-3.8975-10.3592c0-5.3939-1.4058-7.0284-4.9036-5.688c-3.3672,1.2748-4.9036-0.1962-4.9036-4.7075
	c0-5.1454-1.4703-6.246-12.204-5.97l-0.0875-0.0902l-1.1394,0.1263c-1.1467,0.0375-2.3845,0.0872-3.7317,0.1478
	c-15.4951,0.7192-18.9276-0.4904-35.1421-12.3897c-5.5229-4.0464-13.1696-10.3602-20.6852-16.9786l-1.7076-1.6348l-27.0686-25.9146
	l-6.9623-6.9268l1.994-17.1298c1.1768-10.0687,7.1265-27.1331,14.4492-41.4843c13.2397-25.9233,40.0457-72.3439,43.3801-75.0898
	c7.5515-6.2112,49.7875-71.4612,62.4387-96.4368c5.4919-10.7878,13.4684-23.3082,17.7509-27.7869
	c4.2823-4.5112,17.9797-21.8372,30.402-38.542c12.4224-16.7375,29.1599-35.5017,37.1691-41.7456
	c18.5354-14.4492,21.3795-21.0854,25.7273-59.6927c5.0343-44.9493,4.7401-44.0013,20.0392-62.8964
	c24.3651-30.0547,33.4503-41.917,34.4684-49.6868l0.0535-0.0808l-0.0343-0.0641
	C1892.3567,42.3596,1890.8174,39.5037,1888.1726,35.894z"/>
</svg>
